# xmcd
#
# Track frame offsets:
#	150
#	24315
#	47087
#	65913
#	80665
#	100097
#	117791
#	138593
#	165094
#	187483
#	205470
#	221803
#	239089
#	256082
#	276571
#	295032
#
# Disc length: 4207 seconds
#
# Revision: 0
# Processed by: cddbd v1.4PL0 Copyright (c) Steve Scherf et al.
# Submitted via: EasyCDDAExtractor 4.6.9.1
#
DISCID=fc106d10
DTITLE=VA
DYEAR=98
DGENRE=Love Song
TTITLE0=Every Time You Go Away
TTITLE1=Knife
TTITLE2=Take My Breath Away
TTITLE3=Because I Love You
TTITLE4=Lady In Red
TTITLE5=Daniel
TTITLE6=Casablanca
TTITLE7=Please Forgive Me
TTITLE8=Careless Whisper
TTITLE9=Nothing Gonna Change My Love For You
TTITLE10=Unchained Melody
TTITLE11=Womain In Love
TTITLE12=Baby Blue
TTITLE13=The One You Love
TTITLE14=Hello
TTITLE15=Waiting For A Girl Like You
EXTD=
EXTT0=
EXTT1=
EXTT2=
EXTT3=
EXTT4=
EXTT5=
EXTT6=
EXTT7=
EXTT8=
EXTT9=
EXTT10=
EXTT11=
EXTT12=
EXTT13=
EXTT14=
EXTT15=
PLAYORDER=
